<svg width="512" height="512" viewBox="0 0 512 512" fill="none" xmlns="http://www.w3.org/2000/svg">
  <!-- 배경 그라디언트 -->
  <defs>
    <linearGradient id="bgGradient" x1="0%" y1="0%" x2="100%" y2="100%">
      <stop offset="0%" style="stop-color:#8B5CF6;stop-opacity:1" />
      <stop offset="50%" style="stop-color:#EC4899;stop-opacity:1" />
      <stop offset="100%" style="stop-color:#F59E0B;stop-opacity:1" />
    </linearGradient>
    <linearGradient id="diceGradient" x1="0%" y1="0%" x2="100%" y2="100%">
      <stop offset="0%" style="stop-color:#FFFFFF;stop-opacity:1" />
      <stop offset="100%" style="stop-color:#F3F4F6;stop-opacity:1" />
    </linearGradient>
  </defs>
  
  <!-- 배경 -->
  <rect width="512" height="512" rx="115" fill="url(#bgGradient)"/>
  
  <!-- 주사위 1 -->
  <rect x="100" y="140" width="140" height="140" rx="20" fill="url(#diceGradient)" transform="rotate(-15 170 210)"/>
  <rect x="100" y="140" width="140" height="140" rx="20" fill="none" stroke="#8B5CF6" stroke-width="6" transform="rotate(-15 170 210)"/>
  <circle cx="170" cy="210" r="15" fill="#8B5CF6" transform="rotate(-15 170 210)"/>
  <circle cx="150" cy="180" r="12" fill="#8B5CF6" transform="rotate(-15 170 210)"/>
  <circle cx="190" cy="240" r="12" fill="#8B5CF6" transform="rotate(-15 170 210)"/>
  
  <!-- 주사위 2 -->
  <rect x="272" y="232" width="140" height="140" rx="20" fill="url(#diceGradient)" transform="rotate(15 342 302)"/>
  <rect x="272" y="232" width="140" height="140" rx="20" fill="none" stroke="#EC4899" stroke-width="6" transform="rotate(15 342 302)"/>
  <circle cx="315" cy="265" r="12" fill="#EC4899" transform="rotate(15 342 302)"/>
  <circle cx="342" cy="302" r="15" fill="#EC4899" transform="rotate(15 342 302)"/>
  <circle cx="369" cy="339" r="12" fill="#EC4899" transform="rotate(15 342 302)"/>
  <circle cx="328" cy="285" r="10" fill="#EC4899" transform="rotate(15 342 302)"/>
  <circle cx="356" cy="319" r="10" fill="#EC4899" transform="rotate(15 342 302)"/>
</svg>
